<?xml version="1.0" encoding="UTF-8" standalone="no"?>
<!-- Created with Inkscape (http://www.inkscape.org/) -->

<svg
   width="1300"
   height="500"
   viewBox="0 0 343.95833 132.29167"
   version="1.1"
   id="svg5"
   xmlns="http://www.w3.org/2000/svg"
   xmlns:svg="http://www.w3.org/2000/svg">
  <defs
     id="defs2" />
  <g
     id="layer1">
    <path
       style="fill:#2B174A;stroke-width:0.569045"
       d="m 34.655447,130.70087 c -0.7825,-0.1149 -3.34314,-0.4929 -5.690449,-0.84 C 17.128339,128.11025 7.779289,122.27116 4.1801391,114.38108 -0.08336036,105.03463 1.5298294,91.983665 7.332439,88.878408 c 2.84607,-1.523088 7.28363,-1.413518 9.74074,0.2405 3.16925,2.133438 3.61478,3.698766 2.85522,10.031951 -0.7089,5.910421 -0.3996,7.996241 1.6026,10.808051 4.565439,6.41157 26.217276,8.34688 37.150995,3.32067 6.161299,-2.83233 8.978019,-6.83481 8.978019,-12.75743 0,-4.352129 -1.65298,-7.633416 -5.296079,-10.513123 C 58.697684,87.11103 57.402014,86.463561 44.791946,81.228036 29.531258,74.892013 24.897668,72.337456 20.102229,67.616251 13.57332,61.188427 10.750669,53.632415 11.59926,44.854504 13.27667,27.503243 26.700348,16.500704 48.828565,14.339996 67.691553,12.498128 83.783351,18.800332 89.41226,30.23422 c 1.81562,3.688076 1.86311,3.973346 1.86311,11.194058 0,6.849263 -0.1154,7.655822 -1.52656,10.666599 -2.09106,4.461515 -4.118139,5.691694 -8.931199,5.420154 -3.362109,-0.1897 -3.774859,-0.363699 -5.608449,-2.364487 l -1.97924,-2.159738 0.4035,-7.254843 c 0.4445,-7.992161 0.1077,-9.37181 -2.991109,-12.253827 -6.27028,-5.831424 -24.940737,-6.113793 -33.815466,-0.511399 -4.95279,3.126567 -7.513299,9.44968 -6.20104,15.313424 0.5661,2.529717 1.30855,3.798236 3.79433,6.483183 3.59551,3.883566 7.709859,6.184254 20.436367,11.427708 14.044209,5.786364 19.323998,8.726951 23.945128,13.336226 5.600839,5.586484 7.170579,9.042811 7.513509,16.543613 0.1508,3.299677 -0.026,7.073999 -0.419,8.969609 -2.87103,13.82964 -15.520118,22.99942 -35.022946,25.3894 -4.833119,0.5923 -13.077188,0.728 -16.217768,0.267 z m 87.775493,-1.08449 c -4.41991,-1.19018 -7.36579,-2.87544 -10.49327,-6.00292 -6.75608,-6.75606 -10.16254,-20.20006 -9.3767,-37.006279 l 0.3359,-7.185103 -4.901489,-0.2572 C 93.77869,78.943579 92.94951,78.729279 92.06051,77.63146 c -1.41282,-1.744768 -1.85055,-4.554655 -1.12768,-7.239152 1.12133,-4.164276 1.59091,-4.450166 7.831241,-4.767635 l 5.592619,-0.2845 1.6048,-7.682092 c 3.16119,-15.132484 8.34864,-28.032511 14.56716,-36.225242 5.42243,-7.143893 9.8447,-9.992599 16.05736,-10.343719 4.79263,-0.2709 7.31731,0.8543 9.70552,4.325455 2.65229,3.854956 3.43114,7.007543 3.4073,13.791316 -0.043,12.313317 -4.47757,22.686356 -14.0046,32.761055 -1.73974,1.839739 -3.16315,3.415357 -3.16315,3.501367 0,0.086 3.91787,0.1564 8.70638,0.1564 6.01289,0 8.91762,0.211199 9.38922,0.682899 0.9749,0.974899 0.844,5.890574 -0.2111,7.931072 -0.6034,1.166838 -1.94458,2.218407 -4.12557,3.234666 -3.10962,1.448969 -3.67914,1.513689 -15.09665,1.715528 l -11.86513,0.2098 0.2503,11.464738 c 0.2151,9.861374 0.4268,12.006544 1.51316,15.338864 1.64904,5.05832 4.40187,7.92359 8.57435,8.92455 5.63282,1.3513 10.87075,-0.2635 15.82785,-4.87964 l 3.00432,-2.79764 0.2027,-6.82854 c 0.2336,-7.871526 1.1702,-11.891742 4.17597,-17.924885 6.81043,-13.669736 23.12042,-20.198819 35.72418,-14.300805 6.37365,2.982587 11.76403,10.292159 13.3717,18.132591 0.3701,1.804698 0.749,3.558516 0.8421,3.897386 0.1161,0.423299 1.36975,0.471599 4.00526,0.1543 6.05375,-0.7288 5.80774,-0.5109 6.19591,-5.488695 2.04401,-26.211712 6.50703,-46.193191 13.91405,-62.294784 6.4914,-14.1113353 13.7898,-20.9602684 22.38839,-21.0098683 6.6423,-0.038 10.6607,3.3919965 13.1222,11.2019683 1.7699,5.615504 1.7266,17.888411 -0.09,26.392032 -3.9163,18.302121 -13.8239,39.689969 -27.79209,59.995738 l -4.2323,6.152572 0.957,3.04243 c 0.589,1.87331 1.712,3.77307 2.9218,4.94379 1.8448,1.78535 2.197,1.89837 5.7711,1.85228 4.7456,-0.061 8.14529,-1.68702 12.72899,-6.08738 2.3659,-2.27121 3.3046,-3.61864 3.5025,-5.0272 0.149,-1.05839 0.704,-5.253271 1.235,-9.321938 1.0377,-7.957772 4.0863,-21.014368 5.7014,-24.418024 1.1293,-2.379688 3.1443,-3.619337 6.6684,-4.102366 2.8617,-0.3923 6.8018,0.538499 7.9042,1.867108 1.1798,1.421848 0.763,5.822844 -1.7344,18.312691 -3.8031,19.019909 -4.0858,22.879109 -1.9749,26.961059 1.7714,3.42541 6.1088,2.31441 11.2188,-2.87365 l 2.6442,-2.68449 0.226,-7.10021 c 0.38,-11.941442 3.3577,-19.617244 10.2647,-26.460107 6.2256,-6.167803 13.0714,-8.76716 21.2777,-8.079171 5.8126,0.487299 9.85869,2.261248 14.00579,6.140563 6.4415,6.025784 9.1958,13.847716 8.7019,24.712776 -0.49,10.768779 -4.1984,19.512449 -10.9506,25.815709 -5.99809,5.59932 -12.28319,7.84254 -20.53169,7.32794 -6.0717,-0.3788 -9.959,-2.14515 -14.6642,-6.66337 l -3.5707,-3.42867 -1.377,1.47065 c -2.4077,2.57129 -9.5991,7.01943 -12.8998,7.97899 -4.3274,1.258 -9.9849,0.8401 -13.2769,-0.9806 -2.192,-1.21229 -5.7227,-5.01101 -6.3183,-6.7977 -0.13,-0.3893 -2.0362,0.6391 -4.6163,2.49015 -6.5493,4.69895 -9.59619,5.71993 -17.18689,5.75915 -5.5531,0.029 -6.5806,-0.1267 -9.1047,-1.37671 -6.1194,-3.03051 -10.5786,-9.84124 -12.95289,-19.78378 -0.9767,-4.08978 -1.4478,-5.20205 -2.1182,-5.0009 -0.4742,0.1423 -2.99085,0.51939 -5.59255,0.83799 -2.60173,0.3186 -4.95068,0.7155 -5.21989,0.8819 -0.2692,0.1664 -0.6618,1.13182 -0.8723,2.1454 -0.7598,3.65791 -4.30784,10.08394 -7.429,13.45516 -6.35325,6.86227 -12.65117,9.51663 -21.39668,9.01799 -4.36407,-0.2488 -5.68212,-0.5825 -9.23334,-2.33763 -2.62714,-1.29693 -5.12174,-3.09098 -6.80877,-4.89455 l -2.66322,-2.8472 -3.40717,2.74555 c -4.38235,3.53131 -8.05299,5.51133 -12.23791,6.60137 -4.11988,1.07309 -11.48754,1.06977 -15.48619,-0.007 z m 58.18232,-15.05267 c 2.35579,-1.45596 4.44353,-4.62174 5.72147,-8.67583 l 1.00825,-3.19848 -2.55744,-2.48553 c -3.89889,-3.78929 -5.70456,-8.129985 -6.04032,-14.520458 -0.1521,-2.895017 -0.4337,-5.262235 -0.6258,-5.260485 -1.63777,0.015 -5.01205,1.516459 -6.66086,2.964127 -4.13663,3.632006 -6.25385,10.516619 -5.81363,18.904176 0.5852,11.15049 7.5475,16.85881 14.96835,12.27248 z m 140.05841,-1.9142 c 3.5851,-3.9599 4.4747,-7.14327 4.4781,-16.025459 0.003,-6.836914 -0.11,-7.630403 -1.4534,-10.24279 -3.5513,-6.905143 -10.6,-7.280092 -15.2847,-0.813099 -3.7323,5.152334 -4.6898,18.771358 -1.7384,24.727988 1.9968,4.03021 4.4971,5.57753 8.4936,5.25639 2.84,-0.2282 3.3052,-0.4735 5.5048,-2.90307 z M 233.91888,79.135109 c 9.8785,-18.126442 15.57719,-35.256164 16.70489,-50.213838 0.617,-8.176871 -0.935,-13.941575 -3.7523,-13.941575 -4.54719,0 -11.58939,21.934267 -15.32839,47.74321 -1.1556,7.976961 -2.2809,23.391605 -1.7069,23.382995 0.157,-0.0023 1.9945,-3.139217 4.0827,-6.970792 z M 128.87614,54.467624 c 6.36384,-8.84447 9.72124,-21.487577 7.4639,-28.10705 -0.7998,-2.345408 -2.99443,-2.981717 -4.50874,-1.307279 -3.09012,3.416867 -6.80122,14.597835 -9.27624,27.947971 -1.96339,10.590499 -1.968,10.561889 1.20798,7.478172 1.43706,-1.395308 3.73793,-4.100626 5.1131,-6.011814 z m 139.85673,1.999678 c -2.3371,-0.676999 -5.1647,-3.938876 -5.6481,-6.515283 -0.945,-5.038775 1.0533,-9.54439 5.3552,-12.073337 2.2954,-1.349309 3.2679,-1.559839 7.2058,-1.559839 7.7553,0 11.3672,2.984697 11.3569,9.384621 -0.01,6.891952 -5.1052,11.437418 -12.7022,11.334168 -2.0768,-0.028 -4.5823,-0.2849 -5.5676,-0.5703 z"
       id="path39" />
  </g>
</svg>
